<?xml version="1.0" encoding="us-ascii" standalone="no"?><svg xmlns="http://www.w3.org/2000/svg" xmlns:xlink="http://www.w3.org/1999/xlink" contentStyleType="text/css" height="3652px" preserveAspectRatio="none" style="width:387px;height:3652px;background:#FFFFFF;" version="1.1" viewBox="0 0 387 3652" width="387px" zoomAndPan="magnify"><defs/><g><text fill="#000000" font-family="sans-serif" font-size="14" font-weight="bold" lengthAdjust="spacing" textLength="170" x="101.64" y="23.0059">Mirai - Use Case Diagram</text><!--cluster Organizations--><g id="cluster_Organizations"><path d="M160.15,443.0939 L257.15,443.0939 A3.75,3.75 0 0 1 259.65,445.5939 L266.65,465.8938 L360.13,465.8938 A2.5,2.5 0 0 1 362.63,468.3938 L362.63,821.5939 A2.5,2.5 0 0 1 360.13,824.0939 L160.15,824.0939 A2.5,2.5 0 0 1 157.65,821.5939 L157.65,445.5939 A2.5,2.5 0 0 1 160.15,443.0939 " fill="none" style="stroke:#000000;stroke-width:1.5;"/><line style="stroke:#000000;stroke-width:1.5;" x1="157.65" x2="266.65" y1="465.8938" y2="465.8938"/><text fill="#000000" font-family="sans-serif" font-size="14" font-weight="bold" lengthAdjust="spacing" textLength="96" x="161.65" y="458.0999">Organizations</text></g><!--cluster Projects--><g id="cluster_Projects"><path d="M174.51,1732.0939 L231.51,1732.0939 A3.75,3.75 0 0 1 234.01,1734.5939 L241.01,1754.8938 L345.77,1754.8938 A2.5,2.5 0 0 1 348.27,1757.3938 L348.27,2013.5939 A2.5,2.5 0 0 1 345.77,2016.0939 L174.51,2016.0939 A2.5,2.5 0 0 1 172.01,2013.5939 L172.01,1734.5939 A2.5,2.5 0 0 1 174.51,1732.0939 " fill="none" style="stroke:#000000;stroke-width:1.5;"/><line style="stroke:#000000;stroke-width:1.5;" x1="172.01" x2="241.01" y1="1754.8938" y2="1754.8938"/><text fill="#000000" font-family="sans-serif" font-size="14" font-weight="bold" lengthAdjust="spacing" textLength="56" x="176.01" y="1747.0999">Projects</text></g><!--cluster Boards--><g id="cluster_Boards"><path d="M177.69,2788.0939 L227.69,2788.0939 A3.75,3.75 0 0 1 230.19,2790.5939 L237.19,2810.8938 L342.58,2810.8938 A2.5,2.5 0 0 1 345.08,2813.3938 L345.08,3133.5939 A2.5,2.5 0 0 1 342.58,3136.0939 L177.69,3136.0939 A2.5,2.5 0 0 1 175.19,3133.5939 L175.19,2790.5939 A2.5,2.5 0 0 1 177.69,2788.0939 " fill="none" style="stroke:#000000;stroke-width:1.5;"/><line style="stroke:#000000;stroke-width:1.5;" x1="175.19" x2="237.19" y1="2810.8938" y2="2810.8938"/><text fill="#000000" font-family="sans-serif" font-size="14" font-weight="bold" lengthAdjust="spacing" textLength="49" x="179.19" y="2803.0999">Boards</text></g><!--cluster Retrospectives--><g id="cluster_Retrospectives"><path d="M158.91,3160.0939 L262.91,3160.0939 A3.75,3.75 0 0 1 265.41,3162.5939 L272.41,3182.8938 L361.37,3182.8938 A2.5,2.5 0 0 1 363.87,3185.3938 L363.87,3392.5939 A2.5,2.5 0 0 1 361.37,3395.0939 L158.91,3395.0939 A2.5,2.5 0 0 1 156.41,3392.5939 L156.41,3162.5939 A2.5,2.5 0 0 1 158.91,3160.0939 " fill="none" style="stroke:#000000;stroke-width:1.5;"/><line style="stroke:#000000;stroke-width:1.5;" x1="156.41" x2="272.41" y1="3182.8938" y2="3182.8938"/><text fill="#000000" font-family="sans-serif" font-size="14" font-weight="bold" lengthAdjust="spacing" textLength="103" x="160.41" y="3175.0999">Retrospectives</text></g><!--cluster Personas--><g id="cluster_Personas"><path d="M171.19,1349.0939 L236.19,1349.0939 A3.75,3.75 0 0 1 238.69,1351.5939 L245.69,1371.8938 L349.09,1371.8938 A2.5,2.5 0 0 1 351.59,1374.3938 L351.59,1705.5939 A2.5,2.5 0 0 1 349.09,1708.0939 L171.19,1708.0939 A2.5,2.5 0 0 1 168.69,1705.5939 L168.69,1351.5939 A2.5,2.5 0 0 1 171.19,1349.0939 " fill="none" style="stroke:#000000;stroke-width:1.5;"/><line style="stroke:#000000;stroke-width:1.5;" x1="168.69" x2="245.69" y1="1371.8938" y2="1371.8938"/><text fill="#000000" font-family="sans-serif" font-size="14" font-weight="bold" lengthAdjust="spacing" textLength="64" x="172.69" y="1364.0999">Personas</text></g><!--cluster Users--><g id="cluster_Users"><path d="M142.5,44.0939 L182.5,44.0939 A3.75,3.75 0 0 1 185,46.5939 L192,66.8938 L377.78,66.8938 A2.5,2.5 0 0 1 380.28,69.3938 L380.28,416.5939 A2.5,2.5 0 0 1 377.78,419.0939 L142.5,419.0939 A2.5,2.5 0 0 1 140,416.5939 L140,46.5939 A2.5,2.5 0 0 1 142.5,44.0939 " fill="none" style="stroke:#000000;stroke-width:1.5;"/><line style="stroke:#000000;stroke-width:1.5;" x1="140" x2="192" y1="66.8938" y2="66.8938"/><text fill="#000000" font-family="sans-serif" font-size="14" font-weight="bold" lengthAdjust="spacing" textLength="39" x="144" y="59.0999">Users</text></g><!--cluster Sprints--><g id="cluster_Sprints"><path d="M151.76,3419.0939 L201.76,3419.0939 A3.75,3.75 0 0 1 204.26,3421.5939 L211.26,3441.8938 L368.51,3441.8938 A2.5,2.5 0 0 1 371.01,3444.3938 L371.01,3642.5939 A2.5,2.5 0 0 1 368.51,3645.0939 L151.76,3645.0939 A2.5,2.5 0 0 1 149.26,3642.5939 L149.26,3421.5939 A2.5,2.5 0 0 1 151.76,3419.0939 " fill="none" style="stroke:#000000;stroke-width:1.5;"/><line style="stroke:#000000;stroke-width:1.5;" x1="149.26" x2="211.26" y1="3441.8938" y2="3441.8938"/><text fill="#000000" font-family="sans-serif" font-size="14" font-weight="bold" lengthAdjust="spacing" textLength="49" x="153.26" y="3434.0999">Sprints</text></g><!--cluster Tags--><g id="cluster_Tags"><path d="M180.39,848.0939 L215.39,848.0939 A3.75,3.75 0 0 1 217.89,850.5939 L224.89,870.8938 L339.89,870.8938 A2.5,2.5 0 0 1 342.39,873.3938 L342.39,1322.5939 A2.5,2.5 0 0 1 339.89,1325.0939 L180.39,1325.0939 A2.5,2.5 0 0 1 177.89,1322.5939 L177.89,850.5939 A2.5,2.5 0 0 1 180.39,848.0939 " fill="none" style="stroke:#000000;stroke-width:1.5;"/><line style="stroke:#000000;stroke-width:1.5;" x1="177.89" x2="224.89" y1="870.8938" y2="870.8938"/><text fill="#000000" font-family="sans-serif" font-size="14" font-weight="bold" lengthAdjust="spacing" textLength="34" x="181.89" y="863.0999">Tags</text></g><!--cluster Work Items--><g id="cluster_Work Items"><path d="M147.85,2040.0939 L224.85,2040.0939 A3.75,3.75 0 0 1 227.35,2042.5939 L234.35,2062.8938 L372.42,2062.8938 A2.5,2.5 0 0 1 374.92,2065.3938 L374.92,2761.5939 A2.5,2.5 0 0 1 372.42,2764.0939 L147.85,2764.0939 A2.5,2.5 0 0 1 145.35,2761.5939 L145.35,2042.5939 A2.5,2.5 0 0 1 147.85,2040.0939 " fill="none" style="stroke:#000000;stroke-width:1.5;"/><line style="stroke:#000000;stroke-width:1.5;" x1="145.35" x2="234.35" y1="2062.8938" y2="2062.8938"/><text fill="#000000" font-family="sans-serif" font-size="14" font-weight="bold" lengthAdjust="spacing" textLength="76" x="149.35" y="2055.0999">Work Items</text></g><g id="elem_UC1"><ellipse cx="260.1355" cy="717.097" fill="#F1F1F1" rx="85.2655" ry="19.4531" style="stroke:#181818;stroke-width:0.5;"/><text fill="#000000" font-family="sans-serif" font-size="14" lengthAdjust="spacing" textLength="128" x="193.1355" y="720.85">Create Organization</text></g><g id="elem_UC2"><ellipse cx="260.1431" cy="643.0945" fill="#F1F1F1" rx="84.4531" ry="19.2906" style="stroke:#181818;stroke-width:0.5;"/><text fill="#000000" font-family="sans-serif" font-size="14" lengthAdjust="spacing" textLength="126" x="194.1431" y="646.8475">Delete Organization</text></g><g id="elem_UC3"><ellipse cx="260.1417" cy="569.0922" fill="#F1F1F1" rx="86.4917" ry="19.6983" style="stroke:#181818;stroke-width:0.5;"/><text fill="#000000" font-family="sans-serif" font-size="14" lengthAdjust="spacing" textLength="131" x="191.6417" y="572.8452">Update Organization</text></g><g id="elem_UC4"><ellipse cx="260.1379" cy="496.0935" fill="#F1F1F1" rx="77.3479" ry="17.8696" style="stroke:#181818;stroke-width:0.5;"/><text fill="#000000" font-family="sans-serif" font-size="14" lengthAdjust="spacing" textLength="108" x="203.1379" y="499.8465">Get Organization</text></g><g id="elem_UC5"><ellipse cx="260.1421" cy="790.0983" fill="#F1F1F1" rx="79.6721" ry="18.3344" style="stroke:#181818;stroke-width:0.5;"/><text fill="#000000" font-family="sans-serif" font-size="14" lengthAdjust="spacing" textLength="114" x="200.1421" y="793.8513">List Organizations</text></g><g id="elem_UC6"><ellipse cx="260.1404" cy="1852.094" fill="#F1F1F1" rx="71.0504" ry="16.6101" style="stroke:#181818;stroke-width:0.5;"/><text fill="#000000" font-family="sans-serif" font-size="14" lengthAdjust="spacing" textLength="91" x="211.6404" y="1855.847">Create Project</text></g><g id="elem_UC7"><ellipse cx="260.1375" cy="1784.0894" fill="#F1F1F1" rx="72.1275" ry="16.8255" style="stroke:#181818;stroke-width:0.5;"/><text fill="#000000" font-family="sans-serif" font-size="14" lengthAdjust="spacing" textLength="94" x="210.1375" y="1787.8424">Update Project</text></g><g id="elem_UC8"><ellipse cx="260.1447" cy="1985.0975" fill="#F1F1F1" rx="63.8847" ry="15.3236" style="stroke:#181818;stroke-width:0.5;"/><text fill="#000000" font-family="sans-serif" font-size="14" lengthAdjust="spacing" textLength="71" x="221.6447" y="1988.8505">Get Project</text></g><g id="elem_UC9"><ellipse cx="260.1423" cy="1919.0944" fill="#F1F1F1" rx="66.2523" ry="15.6505" style="stroke:#181818;stroke-width:0.5;"/><text fill="#000000" font-family="sans-serif" font-size="14" lengthAdjust="spacing" textLength="77" x="218.6423" y="1922.8474">List Projects</text></g><g id="elem_UC10"><ellipse cx="260.1359" cy="3038.0931" fill="#F1F1F1" rx="68.9459" ry="16.1892" style="stroke:#181818;stroke-width:0.5;"/><text fill="#000000" font-family="sans-serif" font-size="14" lengthAdjust="spacing" textLength="85" x="214.6359" y="3041.8461">Create Board</text></g><g id="elem_UC11"><ellipse cx="260.1399" cy="2971.0959" fill="#F1F1F1" rx="68.2599" ry="16.052" style="stroke:#181818;stroke-width:0.5;"/><text fill="#000000" font-family="sans-serif" font-size="14" lengthAdjust="spacing" textLength="83" x="215.6399" y="2974.8489">Delete Board</text></g><g id="elem_UC12"><ellipse cx="260.1383" cy="3105.0928" fill="#F1F1F1" rx="63.1283" ry="15.3189" style="stroke:#181818;stroke-width:0.5;"/><text fill="#000000" font-family="sans-serif" font-size="14" lengthAdjust="spacing" textLength="70" x="222.1383" y="3108.8458">Move Card</text></g><g id="elem_UC13"><ellipse cx="260.1415" cy="2904.0902" fill="#F1F1F1" rx="66.5815" ry="15.7163" style="stroke:#181818;stroke-width:0.5;"/><text fill="#000000" font-family="sans-serif" font-size="14" lengthAdjust="spacing" textLength="78" x="218.1415" y="2907.8432">Create Card</text></g><g id="elem_UC14"><ellipse cx="260.1447" cy="2838.0975" fill="#F1F1F1" rx="63.8847" ry="15.3236" style="stroke:#181818;stroke-width:0.5;"/><text fill="#000000" font-family="sans-serif" font-size="14" lengthAdjust="spacing" textLength="71" x="221.6447" y="2841.8505">List Boards</text></g><g id="elem_UC15"><ellipse cx="260.1367" cy="3359.0892" fill="#F1F1F1" rx="87.7267" ry="19.9453" style="stroke:#181818;stroke-width:0.5;"/><text fill="#000000" font-family="sans-serif" font-size="14" lengthAdjust="spacing" textLength="134" x="190.1367" y="3362.8422">Create Retrospective</text></g><g id="elem_UC16"><ellipse cx="260.1421" cy="3286.0983" fill="#F1F1F1" rx="79.6721" ry="18.3344" style="stroke:#181818;stroke-width:0.5;"/><text fill="#000000" font-family="sans-serif" font-size="14" lengthAdjust="spacing" textLength="114" x="200.1421" y="3289.8513">Get Retrospective</text></g><g id="elem_UC17"><ellipse cx="260.1418" cy="3214.0923" fill="#F1F1F1" rx="82.0418" ry="18.8084" style="stroke:#181818;stroke-width:0.5;"/><text fill="#000000" font-family="sans-serif" font-size="14" lengthAdjust="spacing" textLength="120" x="197.1418" y="3217.8452">List Retrospectives</text></g><g id="elem_UC18"><ellipse cx="260.1375" cy="1401.0894" fill="#F1F1F1" rx="74.3275" ry="17.2655" style="stroke:#181818;stroke-width:0.5;"/><text fill="#000000" font-family="sans-serif" font-size="14" lengthAdjust="spacing" textLength="100" x="207.1375" y="1404.8424">Create Persona</text></g><g id="elem_UC19"><ellipse cx="260.139" cy="1540.0937" fill="#F1F1F1" rx="75.449" ry="17.4898" style="stroke:#181818;stroke-width:0.5;"/><text fill="#000000" font-family="sans-serif" font-size="14" lengthAdjust="spacing" textLength="103" x="205.639" y="1543.8467">Update Persona</text></g><g id="elem_UC20"><ellipse cx="260.1376" cy="1470.0914" fill="#F1F1F1" rx="73.5876" ry="17.1175" style="stroke:#181818;stroke-width:0.5;"/><text fill="#000000" font-family="sans-serif" font-size="14" lengthAdjust="spacing" textLength="98" x="208.1376" y="1473.8444">Delete Persona</text></g><g id="elem_UC21"><ellipse cx="260.1365" cy="1676.0932" fill="#F1F1F1" rx="67.2465" ry="15.8493" style="stroke:#181818;stroke-width:0.5;"/><text fill="#000000" font-family="sans-serif" font-size="14" lengthAdjust="spacing" textLength="80" x="217.1365" y="1679.8462">Get Persona</text></g><g id="elem_UC22"><ellipse cx="260.1418" cy="1609.0923" fill="#F1F1F1" rx="69.2918" ry="16.2584" style="stroke:#181818;stroke-width:0.5;"/><text fill="#000000" font-family="sans-serif" font-size="14" lengthAdjust="spacing" textLength="86" x="214.1418" y="1612.8453">List Personas</text></g><g id="elem_UC23"><ellipse cx="260.1398" cy="305.0919" fill="#F1F1F1" rx="69.6398" ry="16.328" style="stroke:#181818;stroke-width:0.5;"/><text fill="#000000" font-family="sans-serif" font-size="14" lengthAdjust="spacing" textLength="87" x="213.6398" y="308.8448">Register User</text></g><g id="elem_UC24"><ellipse cx="260.1419" cy="238.098" fill="#F1F1F1" rx="62.3719" ry="15.3141" style="stroke:#181818;stroke-width:0.5;"/><text fill="#000000" font-family="sans-serif" font-size="14" lengthAdjust="spacing" textLength="69" x="222.6419" y="241.851">Login User</text></g><g id="elem_UC25"><ellipse cx="260.145" cy="169.0929" fill="#F1F1F1" rx="83.645" ry="19.129" style="stroke:#181818;stroke-width:0.5;"/><text fill="#000000" font-family="sans-serif" font-size="14" lengthAdjust="spacing" textLength="124" x="195.145" y="172.8459">Update User Profile</text></g><g id="elem_UC26"><ellipse cx="260.1419" cy="97.0903" fill="#F1F1F1" rx="77.7319" ry="17.9464" style="stroke:#181818;stroke-width:0.5;"/><text fill="#000000" font-family="sans-serif" font-size="14" lengthAdjust="spacing" textLength="109" x="202.6419" y="100.8433">Get Current User</text></g><g id="elem_UC27"><ellipse cx="260.1389" cy="380.0917" fill="#F1F1F1" rx="104.1389" ry="23.2278" style="stroke:#181818;stroke-width:0.5;"/><text fill="#000000" font-family="sans-serif" font-size="14" lengthAdjust="spacing" textLength="172" x="173.7047" y="382.8879">Update User Profile Picture</text></g><g id="elem_UC28"><ellipse cx="260.1419" cy="3613.0943" fill="#F1F1F1" rx="68.6019" ry="16.1204" style="stroke:#181818;stroke-width:0.5;"/><text fill="#000000" font-family="sans-serif" font-size="14" lengthAdjust="spacing" textLength="84" x="215.1419" y="3616.8473">Create Sprint</text></g><g id="elem_UC29"><ellipse cx="260.1383" cy="3547.0928" fill="#F1F1F1" rx="63.1283" ry="15.3189" style="stroke:#181818;stroke-width:0.5;"/><text fill="#000000" font-family="sans-serif" font-size="14" lengthAdjust="spacing" textLength="70" x="222.1383" y="3550.8458">List Sprints</text></g><g id="elem_UC30"><ellipse cx="260.1359" cy="3475.0891" fill="#F1F1F1" rx="94.8759" ry="21.3752" style="stroke:#181818;stroke-width:0.5;"/><text fill="#000000" font-family="sans-serif" font-size="14" lengthAdjust="spacing" textLength="151" x="181.9281" y="3478.7459">Add Work Item to Sprint</text></g><g id="elem_UC31"><ellipse cx="260.141" cy="898.0921" fill="#F1F1F1" rx="64.641" ry="15.3282" style="stroke:#181818;stroke-width:0.5;"/><text fill="#000000" font-family="sans-serif" font-size="14" lengthAdjust="spacing" textLength="72" x="221.141" y="901.8451">Create Tag</text></g><g id="elem_UC32"><ellipse cx="260.1383" cy="1228.0928" fill="#F1F1F1" rx="63.1283" ry="15.3189" style="stroke:#181818;stroke-width:0.5;"/><text fill="#000000" font-family="sans-serif" font-size="14" lengthAdjust="spacing" textLength="70" x="222.1383" y="1231.8458">Delete Tag</text></g><g id="elem_UC33"><ellipse cx="260.1423" cy="1162.0944" fill="#F1F1F1" rx="66.2523" ry="15.6505" style="stroke:#181818;stroke-width:0.5;"/><text fill="#000000" font-family="sans-serif" font-size="14" lengthAdjust="spacing" textLength="77" x="218.6423" y="1165.8474">Delete Tags</text></g><g id="elem_UC34"><ellipse cx="260.1423" cy="1096.0944" fill="#F1F1F1" rx="66.2523" ry="15.6505" style="stroke:#181818;stroke-width:0.5;"/><text fill="#000000" font-family="sans-serif" font-size="14" lengthAdjust="spacing" textLength="77" x="218.6423" y="1099.8474">Merge Tags</text></g><g id="elem_UC35"><ellipse cx="260.1408" cy="1030.0941" fill="#F1F1F1" rx="65.6008" ry="15.5202" style="stroke:#181818;stroke-width:0.5;"/><text fill="#000000" font-family="sans-serif" font-size="14" lengthAdjust="spacing" textLength="75" x="219.6408" y="1033.847">Update Tag</text></g><g id="elem_UC36"><ellipse cx="260.1423" cy="964.0944" fill="#F1F1F1" rx="66.2523" ry="15.6505" style="stroke:#181818;stroke-width:0.5;"/><text fill="#000000" font-family="sans-serif" font-size="14" lengthAdjust="spacing" textLength="77" x="218.6423" y="967.8474">Export Tags</text></g><g id="elem_UC37"><ellipse cx="260.1427" cy="1294.0965" fill="#F1F1F1" rx="54.0527" ry="15.2526" style="stroke:#181818;stroke-width:0.5;"/><text fill="#000000" font-family="sans-serif" font-size="14" lengthAdjust="spacing" textLength="58" x="228.1427" y="1297.8495">List Tags</text></g><g id="elem_UC38"><ellipse cx="260.1443" cy="2239.0908" fill="#F1F1F1" rx="98.7843" ry="22.1569" style="stroke:#181818;stroke-width:0.5;"/><text fill="#000000" font-family="sans-serif" font-size="14" lengthAdjust="spacing" textLength="160" x="178.465" y="2242.3844">Add Work Item Comment</text></g><g id="elem_UC39"><ellipse cx="260.1382" cy="2733.0892" fill="#F1F1F1" rx="51.0282" ry="15.2253" style="stroke:#181818;stroke-width:0.5;"/><text fill="#000000" font-family="sans-serif" font-size="14" lengthAdjust="spacing" textLength="54" x="230.1382" y="2736.8422">Add Tag</text></g><g id="elem_UC40"><ellipse cx="260.144" cy="2314.0947" fill="#F1F1F1" rx="78.504" ry="18.1008" style="stroke:#181818;stroke-width:0.5;"/><text fill="#000000" font-family="sans-serif" font-size="14" lengthAdjust="spacing" textLength="111" x="201.644" y="2317.8477">Assign Work Item</text></g><g id="elem_UC41"><ellipse cx="260.1421" cy="2164.0923" fill="#F1F1F1" rx="78.8921" ry="18.1784" style="stroke:#181818;stroke-width:0.5;"/><text fill="#000000" font-family="sans-serif" font-size="14" lengthAdjust="spacing" textLength="112" x="201.1421" y="2167.8453">Create Work Item</text></g><g id="elem_UC42"><ellipse cx="260.1373" cy="2093.0974" fill="#F1F1F1" rx="78.1173" ry="18.0235" style="stroke:#181818;stroke-width:0.5;"/><text fill="#000000" font-family="sans-serif" font-size="14" lengthAdjust="spacing" textLength="110" x="202.1373" y="2096.8503">Delete Work Item</text></g><g id="elem_UC43"><ellipse cx="260.14" cy="2667.0979" fill="#F1F1F1" rx="67.92" ry="15.984" style="stroke:#181818;stroke-width:0.5;"/><text fill="#000000" font-family="sans-serif" font-size="14" lengthAdjust="spacing" textLength="82" x="216.14" y="2670.8509">Remove Tag</text></g><g id="elem_UC44"><ellipse cx="260.1377" cy="2599.0954" fill="#F1F1F1" rx="71.4077" ry="16.6815" style="stroke:#181818;stroke-width:0.5;"/><text fill="#000000" font-family="sans-serif" font-size="14" lengthAdjust="spacing" textLength="92" x="211.1377" y="2602.8484">Get Work Item</text></g><g id="elem_UC45"><ellipse cx="260.1388" cy="2528.0957" fill="#F1F1F1" rx="84.8588" ry="19.3718" style="stroke:#181818;stroke-width:0.5;"/><text fill="#000000" font-family="sans-serif" font-size="14" lengthAdjust="spacing" textLength="127" x="193.6388" y="2531.8486">Get WorkItemsStats</text></g><g id="elem_UC46"><ellipse cx="260.1376" cy="2457.0914" fill="#F1F1F1" rx="73.5876" ry="17.1175" style="stroke:#181818;stroke-width:0.5;"/><text fill="#000000" font-family="sans-serif" font-size="14" lengthAdjust="spacing" textLength="98" x="208.1376" y="2460.8444">List Work Items</text></g><g id="elem_UC47"><ellipse cx="260.1409" cy="2386.0921" fill="#F1F1F1" rx="82.4409" ry="18.8882" style="stroke:#181818;stroke-width:0.5;"/><text fill="#000000" font-family="sans-serif" font-size="14" lengthAdjust="spacing" textLength="121" x="196.6409" y="2389.8451">Search Work Items</text></g><!--entity Admin--><g id="elem_Admin"><ellipse cx="51" cy="1264.1939" fill="#F1F1F1" rx="8" ry="8" style="stroke:#181818;stroke-width:0.5;"/><path d="M51,1272.1939 L51,1299.1939 M38,1280.1939 L64,1280.1939 M51,1299.1939 L38,1314.1939 M51,1299.1939 L64,1314.1939 " fill="none" style="stroke:#181818;stroke-width:0.5;"/><text fill="#000000" font-family="sans-serif" font-size="14" lengthAdjust="spacing" textLength="40" x="31" y="1328.6999">Admin</text></g><!--entity ScrumMaster--><g id="elem_ScrumMaster"><ellipse cx="51" cy="3184.1939" fill="#F1F1F1" rx="8" ry="8" style="stroke:#181818;stroke-width:0.5;"/><path d="M51,3192.1939 L51,3219.1939 M38,3200.1939 L64,3200.1939 M51,3219.1939 L38,3234.1939 M51,3219.1939 L64,3234.1939 " fill="none" style="stroke:#181818;stroke-width:0.5;"/><text fill="#000000" font-family="sans-serif" font-size="14" lengthAdjust="spacing" textLength="85" x="8.5" y="3248.6999">ScrumMaster</text></g><!--entity TeamMember--><g id="elem_TeamMember"><ellipse cx="51" cy="2284.1939" fill="#F1F1F1" rx="8" ry="8" style="stroke:#181818;stroke-width:0.5;"/><path d="M51,2292.1939 L51,2319.1939 M38,2300.1939 L64,2300.1939 M51,2319.1939 L38,2334.1939 M51,2319.1939 L64,2334.1939 " fill="none" style="stroke:#181818;stroke-width:0.5;"/><text fill="#000000" font-family="sans-serif" font-size="14" lengthAdjust="spacing" textLength="90" x="6" y="2348.6999">TeamMember</text></g><!--entity User--><g id="elem_User"><ellipse cx="51" cy="208.1939" fill="#F1F1F1" rx="8" ry="8" style="stroke:#181818;stroke-width:0.5;"/><path d="M51,216.1939 L51,243.1939 M38,224.1939 L64,224.1939 M51,243.1939 L38,258.1939 M51,243.1939 L64,258.1939 " fill="none" style="stroke:#181818;stroke-width:0.5;"/><text fill="#000000" font-family="sans-serif" font-size="14" lengthAdjust="spacing" textLength="30" x="36" y="272.6999">User</text></g><!--link Admin to UC1--><g id="link_Admin_UC1"><path d="M52.48,1255.3139 C54.66,1144.4139 66.58,829.0839 132,754.0939 C144.77,739.4539 157.2053,732.1519 175.8453,726.6519 " fill="none" id="Admin-to-UC1" style="stroke:#181818;stroke-width:1.0;"/><polygon fill="#181818" points="181.6,724.9539,171.8359,723.6645,176.8044,726.3689,174.0999,731.3374,181.6,724.9539" style="stroke:#181818;stroke-width:1.0;"/></g><!--link Admin to UC2--><g id="link_Admin_UC2"><path d="M51.71,1255.3039 C51.59,1134.3539 57.5,767.0239 132,680.0939 C144.72,665.2539 157.2415,657.8791 176.0015,652.3891 " fill="none" id="Admin-to-UC2" style="stroke:#181818;stroke-width:1.0;"/><polygon fill="#181818" points="181.76,650.7039,171.9988,649.3927,176.9613,652.1082,174.2457,657.0707,181.76,650.7039" style="stroke:#181818;stroke-width:1.0;"/></g><!--link Admin to UC3--><g id="link_Admin_UC3"><path d="M54.02,1255.4839 C61.56,1117.7339 89.79,656.0339 132,606.0939 C144.32,591.5239 156.2659,584.2375 174.5559,578.7175 " fill="none" id="Admin-to-UC3" style="stroke:#181818;stroke-width:1.0;"/><polygon fill="#181818" points="180.3,576.9839,170.5281,575.7549,175.5133,578.4286,172.8396,583.4137,180.3,576.9839" style="stroke:#181818;stroke-width:1.0;"/></g><!--link Admin to UC4--><g id="link_Admin_UC4"><path d="M53.55,1255.4439 C59.78,1108.2139 84.99,587.9339 132,532.0939 C145.59,515.9439 160.0132,508.2253 180.3732,503.0753 " fill="none" id="Admin-to-UC4" style="stroke:#181818;stroke-width:1.0;"/><polygon fill="#181818" points="186.19,501.6039,176.4839,499.9331,181.3427,502.83,178.4457,507.6888,186.19,501.6039" style="stroke:#181818;stroke-width:1.0;"/></g><!--link Admin to UC5--><g id="link_Admin_UC5"><path d="M55.23,1255.2039 C63.59,1162.2239 88.36,930.1039 132,867.0939 C152.13,838.0339 181.6221,820.4267 209.8121,808.1067 " fill="none" id="Admin-to-UC5" style="stroke:#181818;stroke-width:1.0;"/><polygon fill="#181818" points="215.31,805.7039,205.4613,805.6428,210.7284,807.7062,208.665,812.9733,215.31,805.7039" style="stroke:#181818;stroke-width:1.0;"/></g><!--link Admin to UC6--><g id="link_Admin_UC6"><path d="M52.6,1332.9639 C55.09,1441.8039 67.76,1746.3739 132,1818.0939 C146.94,1834.7739 163.2024,1842.4106 184.8324,1847.0306 " fill="none" id="Admin-to-UC6" style="stroke:#181818;stroke-width:1.0;"/><polygon fill="#181818" points="190.7,1848.2839,182.7341,1842.4922,185.8103,1847.2395,181.063,1850.3157,190.7,1848.2839" style="stroke:#181818;stroke-width:1.0;"/></g><!--link Admin to UC7--><g id="link_Admin_UC7"><path d="M55.45,1332.8239 C64.16,1423.6839 89.45,1647.4039 132,1708.0939 C152.89,1737.8839 183.9973,1755.6425 212.5973,1767.6425 " fill="none" id="Admin-to-UC7" style="stroke:#181818;stroke-width:1.0;"/><polygon fill="#181818" points="218.13,1769.9639,211.3785,1762.7933,213.5194,1768.0294,208.2833,1770.1703,218.13,1769.9639" style="stroke:#181818;stroke-width:1.0;"/></g><!--link Admin to UC8--><g id="link_Admin_UC8"><path d="M54.2,1332.9039 C62.12,1467.0239 90.98,1905.2239 132,1952.0939 C148.07,1970.4539 167.0052,1978.2263 190.4852,1982.2263 " fill="none" id="Admin-to-UC8" style="stroke:#181818;stroke-width:1.0;"/><polygon fill="#181818" points="196.4,1983.2339,188.1996,1977.7793,191.471,1982.3942,186.8561,1985.6657,196.4,1983.2339" style="stroke:#181818;stroke-width:1.0;"/></g><!--link Admin to UC9--><g id="link_Admin_UC9"><path d="M51.81,1332.8439 C52.04,1451.0039 58.96,1803.7539 132,1886.0939 C147.66,1903.7539 165.5391,1911.4381 188.3091,1915.6281 " fill="none" id="Admin-to-UC9" style="stroke:#181818;stroke-width:1.0;"/><polygon fill="#181818" points="194.21,1916.7139,186.0825,1911.1512,189.2926,1915.809,184.6347,1919.0191,194.21,1916.7139" style="stroke:#181818;stroke-width:1.0;"/></g><!--link TeamMember to UC6--><g id="link_TeamMember_UC6"><path d="M54.08,2275.2939 C59.91,2180.8539 79.6,1942.6639 132,1886.0939 C147.22,1869.6639 163.5443,1862.0961 185.1543,1857.4461 " fill="none" id="TeamMember-to-UC6" style="stroke:#181818;stroke-width:1.0;"/><polygon fill="#181818" points="191.02,1856.1839,181.3799,1854.1667,186.1319,1857.2357,183.0628,1861.9877,191.02,1856.1839" style="stroke:#181818;stroke-width:1.0;"/></g><!--link TeamMember to UC7--><g id="link_TeamMember_UC7"><path d="M52.97,2275.4239 C56.38,2170.7739 71.19,1885.4039 132,1818.0939 C146.78,1801.7339 162.6197,1794.1609 183.9297,1789.4809 " fill="none" id="TeamMember-to-UC7" style="stroke:#181818;stroke-width:1.0;"/><polygon fill="#181818" points="189.79,1788.1939,180.1415,1786.2175,184.9064,1789.2664,181.8575,1794.0313,189.79,1788.1939" style="stroke:#181818;stroke-width:1.0;"/></g><!--link TeamMember to UC8--><g id="link_TeamMember_UC8"><path d="M55.4,2275.4739 C61.92,2221.7039 80.46,2123.6339 132,2059.0939 C155.51,2029.6539 188.581,2011.8562 217.101,2000.1262 " fill="none" id="TeamMember-to-UC8" style="stroke:#181818;stroke-width:1.0;"/><polygon fill="#181818" points="222.65,1997.8439,212.805,1997.568,218.0258,1999.7458,215.848,2004.9666,222.65,1997.8439" style="stroke:#181818;stroke-width:1.0;"/></g><!--link TeamMember to UC9--><g id="link_TeamMember_UC9"><path d="M55.49,2275.4139 C63.8,2191.8539 87.49,1998.2539 132,1952.0939 C148.38,1935.1039 166.4036,1927.564 189.0836,1923.294 " fill="none" id="TeamMember-to-UC9" style="stroke:#181818;stroke-width:1.0;"/><polygon fill="#181818" points="194.98,1922.1839,185.3953,1919.9182,190.0663,1923.109,186.8755,1927.78,194.98,1922.1839" style="stroke:#181818;stroke-width:1.0;"/></g><!--link ScrumMaster to UC10--><g id="link_ScrumMaster_UC10"><path d="M64.29,3175.2339 C76.47,3142.9739 98.23,3098.2739 132,3072.0939 C150.42,3057.8139 168.477,3050.7888 190.597,3045.9788 " fill="none" id="ScrumMaster-to-UC10" style="stroke:#181818;stroke-width:1.0;"/><polygon fill="#181818" points="196.46,3044.7039,186.8156,3042.7076,191.5742,3045.7663,188.5155,3050.5249,196.46,3044.7039" style="stroke:#181818;stroke-width:1.0;"/></g><!--link ScrumMaster to UC11--><g id="link_ScrumMaster_UC11"><path d="M56.04,3175.5639 C63.08,3128.2739 82.01,3048.8639 132,3004.0939 C149.16,2988.7239 166.6922,2981.5588 188.7422,2977.0388 " fill="none" id="ScrumMaster-to-UC11" style="stroke:#181818;stroke-width:1.0;"/><polygon fill="#181818" points="194.62,2975.8339,185.0001,2973.7227,189.7219,2976.838,186.6066,2981.5597,194.62,2975.8339" style="stroke:#181818;stroke-width:1.0;"/></g><!--link ScrumMaster to UC12--><g id="link_ScrumMaster_UC12"><path d="M93.92,3192.0339 C135.29,3170.2639 192.0009,3140.4291 227.1009,3121.9491 " fill="none" id="ScrumMaster-to-UC12" style="stroke:#181818;stroke-width:1.0;"/><polygon fill="#181818" points="232.41,3119.1539,222.5828,3119.8073,227.9857,3121.4833,226.3098,3126.8862,232.41,3119.1539" style="stroke:#181818;stroke-width:1.0;"/></g><!--link ScrumMaster to UC13--><g id="link_ScrumMaster_UC13"><path d="M51.78,3175.4439 C53.61,3115.7039 66.17,3001.1539 132,2937.0939 C148.83,2920.7139 166.8094,2913.3144 189.3294,2908.9544 " fill="none" id="ScrumMaster-to-UC13" style="stroke:#181818;stroke-width:1.0;"/><polygon fill="#181818" points="195.22,2907.8139,185.6238,2905.5975,190.3112,2908.7643,187.1444,2913.4517,195.22,2907.8139" style="stroke:#181818;stroke-width:1.0;"/></g><!--link ScrumMaster to UC14--><g id="link_ScrumMaster_UC14"><path d="M56.02,3175.3139 C65.11,3094.9939 89.84,2914.3139 132,2871.0939 C148.96,2853.7139 167.9034,2846.1287 191.1434,2841.9787 " fill="none" id="ScrumMaster-to-UC14" style="stroke:#181818;stroke-width:1.0;"/><polygon fill="#181818" points="197.05,2840.9239,187.487,2838.5683,192.1279,2841.8029,188.8933,2846.4437,197.05,2840.9239" style="stroke:#181818;stroke-width:1.0;"/></g><!--link TeamMember to UC13--><g id="link_TeamMember_UC13"><path d="M52.18,2352.9539 C53.52,2466.4739 63.37,2794.3639 132,2871.0939 C147.66,2888.6039 165.4014,2896.2654 188.0614,2900.4854 " fill="none" id="TeamMember-to-UC13" style="stroke:#181818;stroke-width:1.0;"/><polygon fill="#181818" points="193.96,2901.5839,185.8445,2896.0038,189.0445,2900.6685,184.3798,2903.8685,193.96,2901.5839" style="stroke:#181818;stroke-width:1.0;"/></g><!--link TeamMember to UC14--><g id="link_TeamMember_UC14"><path d="M54.74,2352.9739 C62.2,2449.5739 85.48,2697.5039 132,2764.0939 C153.28,2794.5539 185.8545,2812.1025 214.8345,2823.4725 " fill="none" id="TeamMember-to-UC14" style="stroke:#181818;stroke-width:1.0;"/><polygon fill="#181818" points="220.42,2825.6639,213.5027,2818.6531,215.7654,2823.8377,210.5808,2826.1005,220.42,2825.6639" style="stroke:#181818;stroke-width:1.0;"/></g><!--link ScrumMaster to UC15--><g id="link_ScrumMaster_UC15"><path d="M72.18,3252.9139 C86.09,3276.1139 106.63,3304.4239 132,3322.0939 C148.7,3333.7239 163.2665,3340.0909 182.7465,3345.6009 " fill="none" id="ScrumMaster-to-UC15" style="stroke:#181818;stroke-width:1.0;"/><polygon fill="#181818" points="188.52,3347.2339,180.9485,3340.9353,183.7088,3345.873,178.7711,3348.6333,188.52,3347.2339" style="stroke:#181818;stroke-width:1.0;"/></g><!--link ScrumMaster to UC16--><g id="link_ScrumMaster_UC16"><path d="M93.87,3234.3339 C106.02,3239.8139 119.41,3245.5039 132,3250.0939 C155.49,3258.6539 176.237,3264.8916 198.967,3271.0216 " fill="none" id="ScrumMaster-to-UC16" style="stroke:#181818;stroke-width:1.0;"/><polygon fill="#181818" points="204.76,3272.5839,197.112,3266.3784,199.9325,3271.282,195.0289,3274.1025,204.76,3272.5839" style="stroke:#181818;stroke-width:1.0;"/></g><!--link ScrumMaster to UC17--><g id="link_ScrumMaster_UC17"><path d="M93.92,3214.0939 C118.03,3214.0939 143.16,3214.0939 171.89,3214.0939 " fill="none" id="ScrumMaster-to-UC17" style="stroke:#181818;stroke-width:1.0;"/><polygon fill="#181818" points="177.89,3214.0939,168.89,3210.0939,172.89,3214.0939,168.89,3218.0939,177.89,3214.0939" style="stroke:#181818;stroke-width:1.0;"/></g><!--link TeamMember to UC17--><g id="link_TeamMember_UC17"><path d="M53.75,2352.7439 C60.96,2506.4039 90.05,3069.0039 132,3136.0939 C150.6,3165.8439 179.6276,3183.5614 208.0076,3195.9014 " fill="none" id="TeamMember-to-UC17" style="stroke:#181818;stroke-width:1.0;"/><polygon fill="#181818" points="213.51,3198.2939,206.8515,3191.0369,208.9247,3196.3002,203.6615,3198.3734,213.51,3198.2939" style="stroke:#181818;stroke-width:1.0;"/></g><!--link Admin to UC18--><g id="link_Admin_UC18"><path d="M71.49,1304.1639 C107.54,1322.7839 179.5891,1360.0004 222.8791,1382.3604 " fill="none" id="Admin-to-UC18" style="stroke:#181818;stroke-width:1.0;"/><polygon fill="#181818" points="228.21,1385.1139,222.0493,1377.4298,223.7676,1382.8193,218.378,1384.5376,228.21,1385.1139" style="stroke:#181818;stroke-width:1.0;"/></g><!--link Admin to UC19--><g id="link_Admin_UC19"><path d="M56.09,1332.6839 C63.19,1380.0739 82.17,1459.7339 132,1505.0939 C148,1519.6539 163.6786,1526.8317 184.4486,1531.8617 " fill="none" id="Admin-to-UC19" style="stroke:#181818;stroke-width:1.0;"/><polygon fill="#181818" points="190.28,1533.2739,182.4743,1527.2679,185.4205,1532.097,180.5914,1535.0432,190.28,1533.2739" style="stroke:#181818;stroke-width:1.0;"/></g><!--link Admin to UC20--><g id="link_Admin_UC20"><path d="M64.29,1332.9539 C76.47,1365.2139 98.23,1409.9139 132,1436.0939 C149.52,1449.6739 166.1649,1456.4895 187.3549,1461.3995 " fill="none" id="Admin-to-UC20" style="stroke:#181818;stroke-width:1.0;"/><polygon fill="#181818" points="193.2,1462.7539,185.3352,1456.8256,188.3291,1461.6252,183.5294,1464.6191,193.2,1462.7539" style="stroke:#181818;stroke-width:1.0;"/></g><!--link Admin to UC21--><g id="link_Admin_UC21"><path d="M55.85,1332.9239 C64.71,1414.3239 89.11,1598.9639 132,1643.0939 C148.21,1659.7739 165.7997,1667.2617 188.1797,1671.6017 " fill="none" id="Admin-to-UC21" style="stroke:#181818;stroke-width:1.0;"/><polygon fill="#181818" points="194.07,1672.7439,185.9961,1667.1037,189.1614,1671.792,184.4731,1674.9574,194.07,1672.7439" style="stroke:#181818;stroke-width:1.0;"/></g><!--link Admin to UC22--><g id="link_Admin_UC22"><path d="M51.64,1332.7339 C53.25,1393.1039 65.48,1509.6339 132,1575.0939 C148.29,1591.1239 165.3798,1598.5725 187.3198,1603.2125 " fill="none" id="Admin-to-UC22" style="stroke:#181818;stroke-width:1.0;"/><polygon fill="#181818" points="193.19,1604.4539,185.2124,1598.6783,188.2982,1603.4194,183.5571,1606.5052,193.19,1604.4539" style="stroke:#181818;stroke-width:1.0;"/></g><!--link TeamMember to UC21--><g id="link_TeamMember_UC21"><path d="M53.21,2275.2439 C57.38,2162.4539 74.23,1837.4639 132,1751.0939 C152.52,1720.4239 184.6044,1702.7403 213.6344,1691.2003 " fill="none" id="TeamMember-to-UC21" style="stroke:#181818;stroke-width:1.0;"/><polygon fill="#181818" points="219.21,1688.9839,209.369,1688.5915,214.5637,1690.8309,212.3242,1696.0256,219.21,1688.9839" style="stroke:#181818;stroke-width:1.0;"/></g><!--link TeamMember to UC22--><g id="link_TeamMember_UC22"><path d="M54.1,2275.4639 C61.82,2139.8739 90.32,1691.1939 132,1643.0939 C146.96,1625.8239 163.762,1618.0677 185.832,1613.5477 " fill="none" id="TeamMember-to-UC22" style="stroke:#181818;stroke-width:1.0;"/><polygon fill="#181818" points="191.71,1612.3439,182.0905,1610.231,186.8117,1613.3471,183.6956,1618.0683,191.71,1612.3439" style="stroke:#181818;stroke-width:1.0;"/></g><!--link User to UC23--><g id="link_User_UC23"><path d="M66.24,244.6239 C82.07,251.7339 108.52,263.1439 132,271.0939 C157.32,279.6639 180.2317,286.0383 203.9717,292.0183 " fill="none" id="User-to-UC23" style="stroke:#181818;stroke-width:1.0;"/><polygon fill="#181818" points="209.79,293.4839,202.0397,287.4067,204.9415,292.2626,200.0856,295.1644,209.79,293.4839" style="stroke:#181818;stroke-width:1.0;"/></g><!--link User to UC24--><g id="link_User_UC24"><path d="M66.24,238.0939 C92.93,238.0939 145.92,238.0939 191.68,238.0939 " fill="none" id="User-to-UC24" style="stroke:#181818;stroke-width:1.0;"/><polygon fill="#181818" points="197.68,238.0939,188.68,234.0939,192.68,238.0939,188.68,242.0939,197.68,238.0939" style="stroke:#181818;stroke-width:1.0;"/></g><!--link User to UC25--><g id="link_User_UC25"><path d="M66.26,231.6239 C82.11,224.5739 108.58,213.2139 132,205.0939 C154.98,197.1339 174.9335,191.1801 197.2235,185.0701 " fill="none" id="User-to-UC25" style="stroke:#181818;stroke-width:1.0;"/><polygon fill="#181818" points="203.01,183.4839,193.2727,182.0055,198.1879,184.8057,195.3876,189.7209,203.01,183.4839" style="stroke:#181818;stroke-width:1.0;"/></g><!--link User to UC26--><g id="link_User_UC26"><path d="M66.26,210.0439 C79.94,185.9039 102.82,151.9039 132,132.0939 C150.09,119.8139 166.5478,113.2739 187.3878,108.0839 " fill="none" id="User-to-UC26" style="stroke:#181818;stroke-width:1.0;"/><polygon fill="#181818" points="193.21,106.6339,183.5101,104.9274,188.3582,107.8422,185.4434,112.6903,193.21,106.6339" style="stroke:#181818;stroke-width:1.0;"/></g><!--link User to UC27--><g id="link_User_UC27"><path d="M66.5,264.0639 C80.49,286.9039 103.69,319.4639 132,339.0939 C147.53,349.8639 160.3666,356.0403 178.4066,362.0403 " fill="none" id="User-to-UC27" style="stroke:#181818;stroke-width:1.0;"/><polygon fill="#181818" points="184.1,363.9339,176.8223,357.298,179.3555,362.3559,174.2976,364.8891,184.1,363.9339" style="stroke:#181818;stroke-width:1.0;"/></g><!--link ScrumMaster to UC28--><g id="link_ScrumMaster_UC28"><path d="M55.4,3252.8739 C63.56,3337.1839 87.02,3533.3339 132,3580.0939 C147.81,3596.5239 164.7877,3603.9716 186.7777,3608.3916 " fill="none" id="ScrumMaster-to-UC28" style="stroke:#181818;stroke-width:1.0;"/><polygon fill="#181818" points="192.66,3609.5739,184.6247,3603.8788,187.758,3608.5886,183.0482,3611.7219,192.66,3609.5739" style="stroke:#181818;stroke-width:1.0;"/></g><!--link ScrumMaster to UC29--><g id="link_ScrumMaster_UC29"><path d="M57.4,3252.7139 C68.3,3325.1439 95.05,3477.3839 132,3514.0939 C149.39,3531.3739 168.6923,3538.9057 192.0823,3543.0557 " fill="none" id="ScrumMaster-to-UC29" style="stroke:#181818;stroke-width:1.0;"/><polygon fill="#181818" points="197.99,3544.1039,189.8272,3538.5931,193.0669,3543.2304,188.4296,3546.4701,197.99,3544.1039" style="stroke:#181818;stroke-width:1.0;"/></g><!--link ScrumMaster to UC30--><g id="link_ScrumMaster_UC30"><path d="M61.82,3252.7139 C73.38,3292.0639 95.72,3353.1139 132,3395.0939 C154.85,3421.5339 183.2606,3439.4966 210.2506,3453.2066 " fill="none" id="ScrumMaster-to-UC30" style="stroke:#181818;stroke-width:1.0;"/><polygon fill="#181818" points="215.6,3455.9239,209.3874,3448.2817,211.1422,3453.6595,205.7643,3455.4142,215.6,3455.9239" style="stroke:#181818;stroke-width:1.0;"/></g><!--link TeamMember to UC30--><g id="link_TeamMember_UC30"><path d="M53.89,2352.9639 C63.18,2541.0339 104.58,3349.5139 132,3395.0939 C149.27,3423.8139 175.8013,3441.3201 203.3613,3454.1601 " fill="none" id="TeamMember-to-UC30" style="stroke:#181818;stroke-width:1.0;"/><polygon fill="#181818" points="208.8,3456.6939,202.3312,3449.2673,204.2677,3454.5824,198.9527,3456.5189,208.8,3456.6939" style="stroke:#181818;stroke-width:1.0;"/></g><!--link Admin to UC31--><g id="link_Admin_UC31"><path d="M55.47,1255.3139 C63.76,1171.5139 87.39,977.3839 132,931.0939 C148.69,913.7739 167.3166,906.1961 190.3866,902.0061 " fill="none" id="Admin-to-UC31" style="stroke:#181818;stroke-width:1.0;"/><polygon fill="#181818" points="196.29,900.9339,186.7201,898.6066,191.3705,901.8274,188.1497,906.4778,196.29,900.9339" style="stroke:#181818;stroke-width:1.0;"/></g><!--link Admin to UC32--><g id="link_Admin_UC32"><path d="M71.44,1285.1939 C87.47,1278.0739 110.91,1268.1439 132,1261.0939 C158.28,1252.3139 182.418,1245.8438 206.658,1239.9838 " fill="none" id="Admin-to-UC32" style="stroke:#181818;stroke-width:1.0;"/><polygon fill="#181818" points="212.49,1238.5739,202.8021,1236.8007,207.63,1239.7488,204.6819,1244.5767,212.49,1238.5739" style="stroke:#181818;stroke-width:1.0;"/></g><!--link Admin to UC33--><g id="link_Admin_UC33"><path d="M71.29,1260.4339 C85.43,1238.6939 106.55,1211.4939 132,1195.0939 C152.41,1181.9339 171.9773,1175.2432 194.7173,1170.4832 " fill="none" id="Admin-to-UC33" style="stroke:#181818;stroke-width:1.0;"/><polygon fill="#181818" points="200.59,1169.2539,190.9614,1167.1827,195.6961,1170.2783,192.6004,1175.013,200.59,1169.2539" style="stroke:#181818;stroke-width:1.0;"/></g><!--link Admin to UC34--><g id="link_Admin_UC34"><path d="M60.69,1255.5139 C71.21,1217.7639 92.61,1161.3839 132,1129.0939 C150.34,1114.0639 168.8766,1106.9711 191.4166,1102.4611 " fill="none" id="Admin-to-UC34" style="stroke:#181818;stroke-width:1.0;"/><polygon fill="#181818" points="197.3,1101.2839,187.6901,1099.1275,192.3972,1102.2649,189.2597,1106.972,197.3,1101.2839" style="stroke:#181818;stroke-width:1.0;"/></g><!--link Admin to UC35--><g id="link_Admin_UC35"><path d="M54.48,1255.3639 C59.89,1203.9539 77.13,1113.7739 132,1063.0939 C149.42,1047.0039 167.779,1039.6826 190.439,1035.3026 " fill="none" id="Admin-to-UC35" style="stroke:#181818;stroke-width:1.0;"/><polygon fill="#181818" points="196.33,1034.1639,186.7344,1031.9446,191.4209,1035.1128,188.2527,1039.7992,196.33,1034.1639" style="stroke:#181818;stroke-width:1.0;"/></g><!--link Admin to UC36--><g id="link_Admin_UC36"><path d="M57.54,1255.2939 C68.58,1183.3639 95.44,1033.3139 132,997.0939 C148.68,980.5639 166.6282,973.1284 189.1682,968.7884 " fill="none" id="Admin-to-UC36" style="stroke:#181818;stroke-width:1.0;"/><polygon fill="#181818" points="195.06,967.6539,185.466,965.4277,190.1502,968.5993,186.9786,973.2834,195.06,967.6539" style="stroke:#181818;stroke-width:1.0;"/></g><!--link Admin to UC37--><g id="link_Admin_UC37"><path d="M71.49,1294.0939 C101.9,1294.0939 155.72,1294.0939 199.68,1294.0939 " fill="none" id="Admin-to-UC37" style="stroke:#181818;stroke-width:1.0;"/><polygon fill="#181818" points="205.68,1294.0939,196.68,1290.0939,200.68,1294.0939,196.68,1298.0939,205.68,1294.0939" style="stroke:#181818;stroke-width:1.0;"/></g><!--link TeamMember to UC37--><g id="link_TeamMember_UC37"><path d="M53.18,2275.4239 C58.58,2107.4239 82.82,1445.8339 132,1368.0939 C152.34,1335.9339 186.4503,1318.2192 216.1003,1307.2892 " fill="none" id="TeamMember-to-UC37" style="stroke:#181818;stroke-width:1.0;"/><polygon fill="#181818" points="221.73,1305.2139,211.902,1304.5737,217.0386,1306.9433,214.669,1312.08,221.73,1305.2139" style="stroke:#181818;stroke-width:1.0;"/></g><!--link Admin to UC41--><g id="link_Admin_UC41"><path d="M53.17,1332.9339 C58.2,1489.3139 80.21,2067.4639 132,2129.0939 C145.11,2144.6939 158.6604,2152.1743 178.3404,2157.2543 " fill="none" id="Admin-to-UC41" style="stroke:#181818;stroke-width:1.0;"/><polygon fill="#181818" points="184.15,2158.7539,176.4354,2152.6314,179.3087,2157.5042,174.4359,2160.3775,184.15,2158.7539" style="stroke:#181818;stroke-width:1.0;"/></g><!--link Admin to UC42--><g id="link_Admin_UC42"><path d="M51.88,1332.5939 C52.12,1465.2139 58.61,1901.1639 132,2016.0939 C151.1,2046.0039 180.8357,2063.6526 209.3857,2075.7526 " fill="none" id="Admin-to-UC42" style="stroke:#181818;stroke-width:1.0;"/><polygon fill="#181818" points="214.91,2078.0939,208.1844,2070.8991,210.3064,2076.1428,205.0626,2078.2648,214.91,2078.0939" style="stroke:#181818;stroke-width:1.0;"/></g><!--link TeamMember to UC38--><g id="link_TeamMember_UC38"><path d="M96.44,2292.9139 C107.9,2287.7739 120.31,2282.4939 132,2278.0939 C152.85,2270.2439 170.3043,2264.4923 191.1143,2258.2323 " fill="none" id="TeamMember-to-UC38" style="stroke:#181818;stroke-width:1.0;"/><polygon fill="#181818" points="196.86,2256.5039,187.0892,2255.2661,192.0719,2257.9442,189.3938,2262.9269,196.86,2256.5039" style="stroke:#181818;stroke-width:1.0;"/></g><!--link TeamMember to UC39--><g id="link_TeamMember_UC39"><path d="M54.93,2352.9939 C62.31,2440.7239 84.59,2650.2639 132,2700.0939 C151.65,2720.7439 176.4622,2728.3839 202.8122,2731.5239 " fill="none" id="TeamMember-to-UC39" style="stroke:#181818;stroke-width:1.0;"/><polygon fill="#181818" points="208.77,2732.2339,200.3065,2727.1971,203.8051,2731.6423,199.3599,2735.1409,208.77,2732.2339" style="stroke:#181818;stroke-width:1.0;"/></g><!--link TeamMember to UC40--><g id="link_TeamMember_UC40"><path d="M96.44,2314.0939 C121.16,2314.0939 146.65,2314.0939 175.33,2314.0939 " fill="none" id="TeamMember-to-UC40" style="stroke:#181818;stroke-width:1.0;"/><polygon fill="#181818" points="181.33,2314.0939,172.33,2310.0939,176.33,2314.0939,172.33,2318.0939,181.33,2314.0939" style="stroke:#181818;stroke-width:1.0;"/></g><!--link TeamMember to UC41--><g id="link_TeamMember_UC41"><path d="M70.01,2275.4039 C83.65,2250.1539 104.7,2218.4139 132,2199.0939 C149.57,2186.6639 165.551,2180.1064 186.121,2174.9364 " fill="none" id="TeamMember-to-UC41" style="stroke:#181818;stroke-width:1.0;"/><polygon fill="#181818" points="191.94,2173.4739,182.2364,2171.7884,187.0908,2174.6927,184.1865,2179.5471,191.94,2173.4739" style="stroke:#181818;stroke-width:1.0;"/></g><!--link TeamMember to UC42--><g id="link_TeamMember_UC42"><path d="M58.4,2275.5039 C67.43,2233.2539 88,2166.4239 132,2128.0939 C147.88,2114.2639 162.9519,2107.3099 183.1919,2102.2099 " fill="none" id="TeamMember-to-UC42" style="stroke:#181818;stroke-width:1.0;"/><polygon fill="#181818" points="189.01,2100.7439,179.3054,2099.0642,184.1616,2101.9656,181.2601,2106.8217,189.01,2100.7439" style="stroke:#181818;stroke-width:1.0;"/></g><!--link TeamMember to UC43--><g id="link_TeamMember_UC43"><path d="M56.77,2352.7539 C66.9,2428.6739 92.89,2593.3739 132,2633.0939 C148.35,2649.7039 165.98,2657.28 188.34,2661.82 " fill="none" id="TeamMember-to-UC43" style="stroke:#181818;stroke-width:1.0;"/><polygon fill="#181818" points="194.22,2663.0139,186.1959,2657.3031,189.32,2662.019,184.604,2665.1431,194.22,2663.0139" style="stroke:#181818;stroke-width:1.0;"/></g><!--link TeamMember to UC44--><g id="link_TeamMember_UC44"><path d="M53.25,2352.7639 C57.16,2407.8239 72.59,2508.4339 132,2565.0939 C148.12,2580.4739 164.5423,2587.7649 185.9623,2592.5149 " fill="none" id="TeamMember-to-UC44" style="stroke:#181818;stroke-width:1.0;"/><polygon fill="#181818" points="191.82,2593.8139,183.8994,2587.9603,186.9386,2592.7314,182.1675,2595.7706,191.82,2593.8139" style="stroke:#181818;stroke-width:1.0;"/></g><!--link TeamMember to UC45--><g id="link_TeamMember_UC45"><path d="M59.36,2352.8439 C69.07,2393.3239 90.07,2455.8939 132,2492.0939 C146.93,2504.9839 160.4027,2511.6646 179.3827,2516.9846 " fill="none" id="TeamMember-to-UC45" style="stroke:#181818;stroke-width:1.0;"/><polygon fill="#181818" points="185.16,2518.6039,177.5736,2512.3233,180.3455,2517.2544,175.4144,2520.0264,185.16,2518.6039" style="stroke:#181818;stroke-width:1.0;"/></g><!--link TeamMember to UC46--><g id="link_TeamMember_UC46"><path d="M71.93,2352.7839 C85.81,2376.0839 106.4,2404.5439 132,2422.0939 C150.88,2435.0339 168.5726,2441.8266 190.2426,2446.9766 " fill="none" id="TeamMember-to-UC46" style="stroke:#181818;stroke-width:1.0;"/><polygon fill="#181818" points="196.08,2448.3639,188.2487,2442.3914,191.2155,2447.2078,186.399,2450.1746,196.08,2448.3639" style="stroke:#181818;stroke-width:1.0;"/></g><!--link TeamMember to UC47--><g id="link_TeamMember_UC47"><path d="M96.37,2335.4539 C107.84,2340.5839 120.27,2345.8139 132,2350.0939 C154.85,2358.4139 174.7793,2364.4529 197.0793,2370.5029 " fill="none" id="TeamMember-to-UC47" style="stroke:#181818;stroke-width:1.0;"/><polygon fill="#181818" points="202.87,2372.0739,195.2313,2365.8569,198.0444,2370.7647,193.1366,2373.5778,202.87,2372.0739" style="stroke:#181818;stroke-width:1.0;"/></g><!--SRC=[XLPDRzim3BtxLmYvx5J0jPIlou0k7Oe12rOqBNRM7CNL6jk1h1J3Xltt-KEs9P74UWZgnnUAUNgaQRKzAxRNHcfsmruQnNQo_RZNiZ2oJ9ApEbbcQsPqyMhPKHkLMrrNII9pMnjsTonrvVu_vEPQxcLZbN78ivBbNfK_9g3DRvBa0timzVN2JYtopHIoqhzbbxH9BZ9_auLYYm1Ui3y9Q_-kZSgxuXOxewHLmNSNJ3RiPNSR4k_LMU74B2I-N8v4HXuI7vJ5M29aVTLDI6iSRvdqn5usTdFpSIhPHpA0S808W2oJlw6qZwR-sTwMf-g8K8AwkAjrXKeKSjPGdP2mGOIPo-WfMwZ92Y1hW6m0iksHsNH1CW2lSNY3mzjOtK-rD4TFs-6PKhQFZXvDKPC6bCZ7-_gzQymvdg6d-0oE23_ME334eBlNjgCZKofmImKoAi2fWC1rTb-0k8Wlu4bPKpUNRXwzA-yYGfowa80rAhA4RaPvAqJR-DY1kIOrNbA15HKW3DlYSUChqzILz1lV8MJZ3_6nwWtU-I5fYxeu96KfCXz2nYqs8APo1qw6J4tO_gwYO9Ac44BcROOhwwWGpsB5k_UQ9tV_2BH-KeNkxxCBZpyjRjEwQClo2GAzYuxHpT6JFe-kp13txgx6gCe62LV_JSWUTMwlPahiJDnJd08S808WIu2i00AyUxWONVdlB0TGpXt2OwNOssPAC50YszuTZ-nxRTxO5wlARj494lAKwbzt51BO4W6UucvgyKY3Prbu0dHFrAzlOsEb-ERZ4JAAC4h38o_kbIb20kv5xup8Wfz_NMfZWnJOwFJZQzZg77OiHrOak2Dnk2Iv2WC8BXkS6BKSs7MoZdTXCmQkBNJRhYvBDNjj0xcUjB5lcqONrPnit4DJr2U0Xhi5qB9uWfNT8Z9N9P3j62GHEATNw63br9fYYNZ35tDWHGuwA6doLuI7E4b09mbYzdDY3-J4aYc8xXR4EuGwLn3xZo3s9ISQn8cjLtGM_WS0]--></g></svg>