<?xml version="1.0" encoding="us-ascii" standalone="no"?><svg xmlns="http://www.w3.org/2000/svg" xmlns:xlink="http://www.w3.org/1999/xlink" contentStyleType="text/css" height="688px" preserveAspectRatio="none" style="width:787px;height:688px;background:#FFFFFF;" version="1.1" viewBox="0 0 787 688" width="787px" zoomAndPan="magnify"><defs/><g><text fill="#000000" font-family="sans-serif" font-size="14" font-weight="bold" lengthAdjust="spacing" textLength="167" x="303.22" y="23.0059">Work Item State Diagram</text><ellipse cx="456.44" cy="53.7999" fill="#222222" rx="10" ry="10" style="stroke:#222222;stroke-width:1.0;"/><g id="New"><rect fill="#F1F1F1" height="50" rx="12.5" ry="12.5" style="stroke:#181818;stroke-width:0.5;" width="50" x="431.44" y="124.7999"/><line style="stroke:#181818;stroke-width:0.5;" x1="431.44" x2="481.44" y1="151.5999" y2="151.5999"/><text fill="#000000" font-family="sans-serif" font-size="14" lengthAdjust="spacing" textLength="28" x="442.44" y="142.8059">New</text></g><g id="Active"><rect fill="#F1F1F1" height="50" rx="12.5" ry="12.5" style="stroke:#181818;stroke-width:0.5;" width="58" x="201.44" y="251.7999"/><line style="stroke:#181818;stroke-width:0.5;" x1="201.44" x2="259.44" y1="278.5999" y2="278.5999"/><text fill="#000000" font-family="sans-serif" font-size="14" lengthAdjust="spacing" textLength="38" x="211.44" y="269.8059">Active</text></g><g id="Resolved"><rect fill="#F1F1F1" height="50" rx="12.5" ry="12.5" style="stroke:#181818;stroke-width:0.5;" width="79" x="364.94" y="378.7999"/><line style="stroke:#181818;stroke-width:0.5;" x1="364.94" x2="443.94" y1="405.5999" y2="405.5999"/><text fill="#000000" font-family="sans-serif" font-size="14" lengthAdjust="spacing" textLength="59" x="374.94" y="396.8059">Resolved</text></g><g id="Closed"><rect fill="#F1F1F1" height="50" rx="12.5" ry="12.5" style="stroke:#181818;stroke-width:0.5;" width="64" x="152.44" y="505.7999"/><line style="stroke:#181818;stroke-width:0.5;" x1="152.44" x2="216.44" y1="532.5999" y2="532.5999"/><text fill="#000000" font-family="sans-serif" font-size="14" lengthAdjust="spacing" textLength="44" x="162.44" y="523.8059">Closed</text></g><g id="Removed"><rect fill="#F1F1F1" height="50" rx="12.5" ry="12.5" style="stroke:#181818;stroke-width:0.5;" width="81" x="318.94" y="632.7999"/><line style="stroke:#181818;stroke-width:0.5;" x1="318.94" x2="399.94" y1="659.5999" y2="659.5999"/><text fill="#000000" font-family="sans-serif" font-size="14" lengthAdjust="spacing" textLength="61" x="328.94" y="650.8059">Removed</text></g><g id="elem_GMN19"><path d="M515.94,129.1999 L515.94,145.7999 L481.91,149.7999 L515.94,153.7999 L515.94,170.4 A0,0 0 0 0 515.94,170.4 L642.94,170.4 A0,0 0 0 0 642.94,170.4 L642.94,139.1999 L632.94,129.1999 L515.94,129.1999 A0,0 0 0 0 515.94,129.1999 " fill="#FEFFDD" style="stroke:#181818;stroke-width:0.5;"/><path d="M632.94,129.1999 L632.94,139.1999 L642.94,139.1999 L632.94,129.1999 " fill="#FEFFDD" style="stroke:#181818;stroke-width:0.5;"/><text fill="#000000" font-family="sans-serif" font-size="13" lengthAdjust="spacing" textLength="64" x="521.94" y="146.2769">Initial state</text><text fill="#000000" font-family="sans-serif" font-size="13" lengthAdjust="spacing" textLength="106" x="521.94" y="161.877">Work item created</text></g><g id="elem_GMN22"><path d="M294.94,263.9999 L294.94,272.7999 L259.51,276.7999 L294.94,280.7999 L294.94,289.5999 A0,0 0 0 0 294.94,289.5999 L413.94,289.5999 A0,0 0 0 0 413.94,289.5999 L413.94,273.9999 L403.94,263.9999 L294.94,263.9999 A0,0 0 0 0 294.94,263.9999 " fill="#FEFFDD" style="stroke:#181818;stroke-width:0.5;"/><path d="M403.94,263.9999 L403.94,273.9999 L413.94,273.9999 L403.94,263.9999 " fill="#FEFFDD" style="stroke:#181818;stroke-width:0.5;"/><text fill="#000000" font-family="sans-serif" font-size="13" lengthAdjust="spacing" textLength="98" x="300.94" y="281.0769">Work in progress</text></g><g id="elem_GMN25"><path d="M478.94,383.1999 L478.94,399.7999 L444.38,403.7999 L478.94,407.7999 L478.94,424.4 A0,0 0 0 0 478.94,424.4 L611.94,424.4 A0,0 0 0 0 611.94,424.4 L611.94,393.1999 L601.94,383.1999 L478.94,383.1999 A0,0 0 0 0 478.94,383.1999 " fill="#FEFFDD" style="stroke:#181818;stroke-width:0.5;"/><path d="M601.94,383.1999 L601.94,393.1999 L611.94,393.1999 L601.94,383.1999 " fill="#FEFFDD" style="stroke:#181818;stroke-width:0.5;"/><text fill="#000000" font-family="sans-serif" font-size="13" lengthAdjust="spacing" textLength="66" x="484.94" y="400.2769">Work done,</text><text fill="#000000" font-family="sans-serif" font-size="13" lengthAdjust="spacing" textLength="112" x="484.94" y="415.877">waiting for approval</text></g><g id="elem_GMN28"><path d="M251.44,510.1999 L251.44,526.7999 L216.89,530.7999 L251.44,534.7999 L251.44,551.4 A0,0 0 0 0 251.44,551.4 L351.44,551.4 A0,0 0 0 0 351.44,551.4 L351.44,520.1999 L341.44,510.1999 L251.44,510.1999 A0,0 0 0 0 251.44,510.1999 " fill="#FEFFDD" style="stroke:#181818;stroke-width:0.5;"/><path d="M341.44,510.1999 L341.44,520.1999 L351.44,520.1999 L341.44,510.1999 " fill="#FEFFDD" style="stroke:#181818;stroke-width:0.5;"/><text fill="#000000" font-family="sans-serif" font-size="13" lengthAdjust="spacing" textLength="79" x="257.44" y="527.2769">Work finished</text><text fill="#000000" font-family="sans-serif" font-size="13" lengthAdjust="spacing" textLength="78" x="257.44" y="542.877">and accepted</text></g><g id="elem_GMN31"><path d="M435.44,637.1999 L435.44,653.7999 L400.44,657.7999 L435.44,661.7999 L435.44,678.4 A0,0 0 0 0 435.44,678.4 L561.44,678.4 A0,0 0 0 0 561.44,678.4 L561.44,647.1999 L551.44,637.1999 L435.44,637.1999 A0,0 0 0 0 435.44,637.1999 " fill="#FEFFDD" style="stroke:#181818;stroke-width:0.5;"/><path d="M551.44,637.1999 L551.44,647.1999 L561.44,647.1999 L551.44,637.1999 " fill="#FEFFDD" style="stroke:#181818;stroke-width:0.5;"/><text fill="#000000" font-family="sans-serif" font-size="13" lengthAdjust="spacing" textLength="105" x="441.44" y="654.2769">Work item deleted</text><text fill="#000000" font-family="sans-serif" font-size="13" lengthAdjust="spacing" textLength="69" x="441.44" y="669.877">(soft delete)</text></g><!--link *start* to New--><g id="link_*start*_New"><path d="M456.44,64.1599 C456.44,78.0899 456.44,98.7499 456.44,118.4499 " fill="none" id="*start*-to-New" style="stroke:#181818;stroke-width:1.0;"/><polygon fill="#181818" points="456.44,124.4499,460.44,115.4499,456.44,119.4499,452.44,115.4499,456.44,124.4499" style="stroke:#181818;stroke-width:1.0;"/></g><!--link New to Active--><g id="link_New_Active"><path d="M430.96,164.8999 C388.71,188.2599 309.6507,231.9965 265.0007,256.6865 " fill="none" id="New-to-Active" style="stroke:#181818;stroke-width:1.0;"/><polygon fill="#181818" points="259.75,259.5899,269.5617,258.7352,264.1256,257.1704,265.6904,251.7343,259.75,259.5899" style="stroke:#181818;stroke-width:1.0;"/><text fill="#000000" font-family="sans-serif" font-size="13" lengthAdjust="spacing" textLength="59" x="357.97" y="217.8769">Start work</text></g><!--link Active to Resolved--><g id="link_Active_Resolved"><path d="M259.9,293.8799 C265.63,296.7099 271.66,299.4899 277.44,301.7999 C320.92,319.1899 344.32,299.7399 378.44,331.7999 C391.36,343.9299 396.6239,357.1529 399.9039,372.4729 " fill="none" id="Active-to-Resolved" style="stroke:#181818;stroke-width:1.0;"/><polygon fill="#181818" points="401.16,378.3399,403.1872,368.702,400.1132,373.4507,395.3644,370.3768,401.16,378.3399" style="stroke:#181818;stroke-width:1.0;"/><text fill="#000000" font-family="sans-serif" font-size="13" lengthAdjust="spacing" textLength="191" x="391.55" y="344.8769">Work complete / ready for review</text></g><!--link Resolved to Active--><g id="link_Resolved_Active"><path d="M364.69,388.2499 C356.04,385.1099 346.94,381.8299 338.44,378.7999 C300.31,365.2199 280.56,377.9199 252.44,348.7999 C240.34,336.2699 235.8474,323.1331 233.3874,307.9131 " fill="none" id="Resolved-to-Active" style="stroke:#181818;stroke-width:1.0;"/><polygon fill="#181818" points="232.43,301.9899,229.9173,311.5129,233.2278,306.9259,237.8148,310.2364,232.43,301.9899" style="stroke:#181818;stroke-width:1.0;"/><text fill="#000000" font-family="sans-serif" font-size="13" lengthAdjust="spacing" textLength="116" x="253.44" y="344.8769">Reopen for changes</text></g><!--link Resolved to Closed--><g id="link_Resolved_Closed"><path d="M364.67,420.6399 C341.1,430.5699 310.95,444.2199 285.44,458.7999 C261.07,472.7399 239.9989,487.4118 220.5389,501.9318 " fill="none" id="Resolved-to-Closed" style="stroke:#181818;stroke-width:1.0;"/><polygon fill="#181818" points="215.73,505.5199,225.3354,503.3437,219.7374,502.5298,220.5512,496.9318,215.73,505.5199" style="stroke:#181818;stroke-width:1.0;"/><text fill="#000000" font-family="sans-serif" font-size="13" lengthAdjust="spacing" textLength="108" x="286.44" y="471.8769">Approve and close</text></g><!--link Active to Closed--><g id="link_Active_Closed"><path d="M226.03,301.9599 C217.26,350.0099 198.7969,451.1474 189.9869,499.4374 " fill="none" id="Active-to-Closed" style="stroke:#181818;stroke-width:1.0;"/><polygon fill="#181818" points="188.91,505.3399,194.4603,497.204,189.8074,500.4211,186.5902,495.7682,188.91,505.3399" style="stroke:#181818;stroke-width:1.0;"/><text fill="#000000" font-family="sans-serif" font-size="13" lengthAdjust="spacing" textLength="127" x="212.26" y="408.3769">Skip review and close</text></g><!--link Closed to Active--><g id="link_Closed_Active"><path d="M170.52,505.5399 C155.05,475.3099 134.14,422.3399 149.44,378.7999 C160.03,348.6899 179.515,325.1199 198.585,306.3399 " fill="none" id="Closed-to-Active" style="stroke:#181818;stroke-width:1.0;"/><polygon fill="#181818" points="202.86,302.1299,193.6408,305.5949,199.2975,305.6383,199.2541,311.295,202.86,302.1299" style="stroke:#181818;stroke-width:1.0;"/><text fill="#000000" font-family="sans-serif" font-size="13" lengthAdjust="spacing" textLength="44" x="150.44" y="408.3769">Reopen</text></g><!--link New to Removed--><g id="link_New_Removed"><path d="M481.73,165.3299 C487.23,168.4699 493.03,171.7599 498.44,174.7999 C579.44,220.2899 681.44,182.8999 681.44,275.7999 C681.44,275.7999 681.44,275.7999 681.44,531.7999 C681.44,657.4299 534.16,586.3299 417.44,632.7999 C411.88,635.0199 411.5721,635.1151 405.8121,637.4751 " fill="none" id="New-to-Removed" style="stroke:#181818;stroke-width:1.0;"/><polygon fill="#181818" points="400.26,639.7499,410.1046,640.0391,404.8867,637.8543,407.0715,632.6364,400.26,639.7499" style="stroke:#181818;stroke-width:1.0;"/><text fill="#000000" font-family="sans-serif" font-size="13" lengthAdjust="spacing" textLength="97" x="682.44" y="408.3769">Delete work item</text></g><!--link Active to Removed--><g id="link_Active_Removed"><path d="M201.17,290.1399 C139.71,318.0299 6,390.1799 44.44,475.7999 C93.86,585.8399 239.397,631.1598 312.817,647.7198 " fill="none" id="Active-to-Removed" style="stroke:#181818;stroke-width:1.0;"/><polygon fill="#181818" points="318.67,649.0399,310.7706,643.1577,313.7925,647.9398,309.0105,650.9617,318.67,649.0399" style="stroke:#181818;stroke-width:1.0;"/><text fill="#000000" font-family="sans-serif" font-size="13" lengthAdjust="spacing" textLength="97" x="45.44" y="471.8769">Delete work item</text></g><!--link Resolved to Removed--><g id="link_Resolved_Removed"><path d="M405.92,429.1799 C407.49,467.1699 407.65,542.3999 389.44,602.7999 C386.35,613.0699 384.1208,618.3717 378.8708,627.3417 " fill="none" id="Resolved-to-Removed" style="stroke:#181818;stroke-width:1.0;"/><polygon fill="#181818" points="375.84,632.5199,383.8383,626.773,378.3656,628.2047,376.934,622.732,375.84,632.5199" style="stroke:#181818;stroke-width:1.0;"/><text fill="#000000" font-family="sans-serif" font-size="13" lengthAdjust="spacing" textLength="97" x="406.07" y="535.3769">Delete work item</text></g><!--link Closed to Removed--><g id="link_Closed_Removed"><path d="M216.54,554.7299 C247.33,576.7199 288.7776,606.3225 320.2776,628.8225 " fill="none" id="Closed-to-Removed" style="stroke:#181818;stroke-width:1.0;"/><polygon fill="#181818" points="325.16,632.3099,320.1614,623.8238,321.0913,629.4037,315.5114,630.3337,325.16,632.3099" style="stroke:#181818;stroke-width:1.0;"/><text fill="#000000" font-family="sans-serif" font-size="13" lengthAdjust="spacing" textLength="97" x="283.42" y="598.8769">Delete work item</text></g><!--SRC=[XL4zRyCW4Dtv5JUsLQFi7If5pPAbWpDag3eWEDiec4E0RFNVzy0VjICbNH1tlFVkyIwPP14k5AvmIjZ1ESc4S3Io2R8Juklb6tQxT_Z4GGW-Id5GoVG8RnaS4WnC5bClFrSOoVQe6L1q5NNU8glk8Q3KFr1Ju5jlM7F1PkA7fLXe1-y3iPfq6bHkhkKNrFbg_AIpGiucA-neD774CZtR1CD_t7gzYzfOUu2R_Fo3MiEM_2eaZsuxwUQnXALQwHgCGZXYqM2QDW7LPIa09sUIaHPYtXpNbtacA8uxeHR8uMJcBNySjL0SSEfDm1ZlCcQdCqUJmrSk1iaUN5FCoh8yQU-AZ4dC4hLn9hQbpakKIg5_P7hAUFDHNTBElQT8TPhgvp-DNm00]--></g></svg>